<?xml version="1.0" standalone="no"?>
<!DOCTYPE svg PUBLIC "-//W3C//DTD SVG 20010904//EN"
 "http://www.w3.org/TR/2001/REC-SVG-20010904/DTD/svg10.dtd">
<svg version="1.0" xmlns="http://www.w3.org/2000/svg"
 width="640.000000pt" height="640.000000pt" viewBox="0 0 640.000000 640.000000"
 preserveAspectRatio="xMidYMid meet">
<metadata>
Created by potrace 1.11, written by Peter Selinger 2001-2013
</metadata>
<g transform="translate(0.000000,640.000000) scale(0.100000,-0.100000)"
fill="#000000" stroke="none">
<path d="M800 5547 c-377 -358 -685 -655 -685 -662 0 -6 308 -304 685 -661
l685 -650 3 357 c2 282 5 359 16 368 9 7 150 12 449 13 l435 3 -35 60 c-95
161 -137 333 -130 530 7 194 52 344 150 498 l37 57 -449 0 c-362 0 -451 3
-460 13 -7 9 -12 127 -13 369 l-3 355 -685 -650z"/>
<path d="M3015 5756 c-334 -77 -593 -322 -685 -648 -27 -95 -37 -272 -21 -373
58 -355 317 -641 668 -737 111 -30 335 -30 445 0 314 86 548 314 645 629 24
79 27 104 27 243 1 132 -3 167 -22 233 -88 307 -309 535 -612 633 -74 23 -105
27 -235 30 -103 3 -169 -1 -210 -10z m292 -140 c-3 -17 -10 -56 -18 -87 -7
-31 -9 -64 -6 -74 6 -15 10 -13 30 16 34 50 72 67 167 75 47 4 91 11 98 17 9
7 12 3 12 -15 0 -13 -20 -53 -45 -88 -25 -35 -45 -72 -45 -82 0 -15 4 -15 36
7 48 32 94 32 189 -1 42 -14 82 -23 90 -20 8 3 15 4 15 2 0 -20 -21 -41 -71
-71 -57 -35 -105 -83 -94 -93 3 -3 11 0 17 6 17 17 83 15 119 -3 16 -9 54 -38
85 -65 30 -28 62 -50 71 -50 15 0 16 -2 3 -15 -9 -8 -51 -21 -95 -30 -85 -16
-136 -45 -79 -45 52 0 95 -38 139 -121 22 -42 46 -83 53 -92 21 -24 -11 -29
-84 -12 -107 25 -163 17 -102 -14 54 -28 70 -60 78 -161 5 -50 14 -97 20 -105
25 -30 -36 -16 -81 18 -58 44 -83 57 -111 57 -20 -1 -21 -2 -5 -11 24 -14 47
-62 47 -99 0 -17 -11 -63 -25 -102 -14 -39 -25 -82 -25 -94 0 -37 -25 -19 -69
51 -35 55 -79 101 -88 92 -1 -2 2 -17 9 -33 19 -51 3 -95 -62 -170 -33 -38
-60 -78 -60 -89 -1 -19 -1 -19 -19 2 -11 13 -23 52 -29 94 -6 40 -17 78 -25
86 -12 13 -15 9 -20 -25 -9 -53 -40 -83 -135 -131 -44 -22 -82 -46 -85 -53 -3
-9 -7 -7 -12 6 -5 10 -1 50 9 93 10 42 15 85 11 101 l-7 27 -20 -38 c-25 -51
-82 -76 -165 -77 -34 0 -73 -4 -87 -10 -40 -15 -34 19 19 96 25 36 45 74 45
86 0 19 -2 18 -30 -6 -47 -39 -85 -42 -172 -12 -41 14 -87 26 -101 26 -15 0
-27 4 -27 8 0 13 41 47 92 76 49 28 99 87 62 72 -71 -28 -112 -15 -205 66 -30
26 -63 48 -72 48 -9 0 -17 3 -17 8 0 15 41 32 106 42 71 11 104 24 104 40 0 6
-15 10 -33 10 -32 0 -71 20 -94 50 -7 8 -28 48 -48 88 -19 39 -39 72 -45 72
-5 0 -10 5 -10 10 0 14 56 12 120 -5 30 -8 68 -12 85 -9 l29 6 -35 19 c-55 28
-72 61 -80 164 -4 49 -10 98 -14 108 -12 29 15 20 85 -27 36 -25 79 -48 95
-52 l30 -7 -29 31 c-41 44 -45 99 -12 186 14 37 26 79 26 92 0 13 4 24 8 24
13 0 46 -40 76 -92 23 -42 51 -68 71 -68 3 0 1 9 -5 19 -28 53 -7 112 70 197
28 30 50 61 50 69 0 24 17 17 28 -12 6 -16 16 -54 21 -86 16 -92 45 -130 47
-62 1 52 31 85 117 130 42 23 82 46 88 52 19 19 31 4 26 -31z"/>
<path d="M4027 5403 c98 -154 143 -304 150 -498 7 -197 -35 -369 -130 -530
l-35 -60 166 -6 c198 -7 291 -28 427 -94 269 -131 454 -384 490 -672 l7 -53
609 0 609 0 -4 38 c-3 20 -8 71 -11 112 -24 324 -174 698 -396 992 -86 114
-274 299 -396 391 -393 293 -843 437 -1370 437 l-153 0 37 -57z"/>
<path d="M85 2863 c2 -21 7 -74 10 -117 24 -321 173 -693 396 -988 86 -114
274 -299 396 -391 393 -293 843 -437 1369 -437 l152 0 -48 80 c-91 152 -129
282 -137 470 -4 111 -1 152 15 230 22 109 63 218 115 305 l35 60 -166 6 c-216
9 -353 44 -486 124 -241 145 -398 378 -431 643 l-7 52 -609 0 -609 0 5 -37z"/>
<path d="M4910 2462 c0 -288 -3 -362 -13 -371 -10 -7 -148 -12 -450 -13 l-435
-3 35 -60 c159 -270 176 -625 44 -911 -16 -34 -45 -87 -65 -118 l-36 -56 449
0 c362 0 451 -3 460 -13 7 -9 12 -127 13 -368 l3 -355 685 649 c377 358 685
655 685 662 0 6 -229 229 -510 495 -280 266 -590 560 -687 653 l-178 169 0
-360z"/>
<path d="M3038 2405 c-376 -72 -668 -371 -729 -750 -16 -101 -6 -278 21 -373
83 -296 304 -525 600 -624 93 -32 100 -32 270 -32 170 0 177 0 270 32 296 99
517 328 600 624 27 95 37 272 21 373 -58 355 -320 646 -666 735 -105 28 -283
35 -387 15z m183 -105 c18 -10 19 -23 19 -175 0 -91 2 -165 4 -165 2 0 32 29
67 65 62 65 84 76 107 53 26 -26 10 -55 -82 -155 l-95 -102 0 -110 c0 -61 3
-111 7 -111 3 0 48 24 99 53 l93 52 43 134 c34 107 46 136 65 144 19 9 27 7
43 -10 l21 -20 -26 -83 c-15 -46 -25 -84 -23 -86 2 -2 63 30 135 72 133 77
165 85 186 52 18 -29 -3 -48 -144 -130 l-133 -76 39 -10 c22 -6 55 -13 74 -17
68 -13 100 -51 68 -83 -17 -17 -45 -15 -164 13 -58 14 -114 25 -124 25 -9 0
-61 -25 -114 -56 l-97 -56 100 -58 99 -58 128 30 c138 31 169 30 179 -3 11
-33 -21 -55 -108 -74 -43 -9 -76 -19 -73 -23 4 -3 66 -40 139 -82 99 -58 133
-83 135 -99 4 -26 -14 -51 -37 -51 -9 0 -74 34 -145 75 -72 41 -132 73 -134
71 -2 -2 6 -35 17 -74 26 -86 26 -108 1 -122 -39 -21 -56 2 -100 142 l-42 133
-96 55 c-54 30 -100 57 -104 58 -5 2 -8 -47 -8 -110 l0 -113 96 -103 c76 -83
95 -109 92 -129 -2 -17 -12 -29 -27 -35 -22 -8 -32 -1 -93 64 -38 40 -68 66
-67 58 1 -8 1 -86 0 -172 l-1 -158 -25 -6 c-50 -12 -55 4 -55 180 l-1 161 -63
-67 c-62 -67 -89 -81 -114 -56 -25 25 -9 54 83 153 l95 103 0 117 c0 64 -4
115 -8 113 -4 -1 -49 -27 -99 -56 l-91 -53 -37 -117 c-20 -64 -38 -125 -41
-134 -7 -23 -50 -34 -69 -18 -20 17 -19 37 9 125 13 41 23 75 21 75 -2 0 -65
-36 -141 -80 -76 -44 -146 -80 -155 -80 -24 0 -42 26 -36 52 5 17 44 45 142
101 74 44 135 80 135 82 0 2 -35 11 -77 20 -86 19 -119 41 -109 73 4 12 15 24
25 27 10 3 78 -8 150 -24 l132 -29 99 56 c54 32 96 60 92 64 -4 3 -46 29 -95
57 l-88 50 -131 -29 c-72 -17 -140 -28 -150 -24 -22 7 -35 51 -20 66 6 6 51
21 99 33 l87 21 -139 80 c-147 85 -167 103 -149 131 21 34 52 25 186 -51 73
-41 134 -74 135 -72 2 2 -8 40 -22 86 -25 78 -26 83 -9 101 20 22 47 25 62 7
5 -7 28 -71 51 -143 l41 -130 94 -52 c52 -29 97 -53 100 -53 3 0 6 48 6 108
l0 107 -95 103 c-93 100 -107 126 -83 150 25 25 53 12 115 -55 l62 -68 1 172
c0 153 2 173 18 182 21 13 20 13 43 1z"/>
</g>
</svg>
