<?xml version="1.0" encoding="UTF-8" standalone="no"?>
<svg
   xmlns:dc="http://purl.org/dc/elements/1.1/"
   xmlns:cc="http://creativecommons.org/ns#"
   xmlns:rdf="http://www.w3.org/1999/02/22-rdf-syntax-ns#"
   xmlns:svg="http://www.w3.org/2000/svg"
   xmlns="http://www.w3.org/2000/svg"
   xmlns:sodipodi="http://sodipodi.sourceforge.net/DTD/sodipodi-0.dtd"
   xmlns:inkscape="http://www.inkscape.org/namespaces/inkscape"
   version="1.1"
   width="400"
   height="400"
   viewBox="0 0 400 400"
   xml:space="preserve"
   id="svg10"
   sodipodi:docname="twitter.svg"
   inkscape:version="0.92.5 (2060ec1f9f, 2020-04-08)"><metadata
   id="metadata14"><rdf:RDF><cc:Work
       rdf:about=""><dc:format>image/svg+xml</dc:format><dc:type
         rdf:resource="http://purl.org/dc/dcmitype/StillImage" /></cc:Work></rdf:RDF></metadata><sodipodi:namedview
   pagecolor="#ffffff"
   bordercolor="#666666"
   borderopacity="1"
   objecttolerance="10"
   gridtolerance="10"
   guidetolerance="10"
   inkscape:pageopacity="0"
   inkscape:pageshadow="2"
   inkscape:window-width="1366"
   inkscape:window-height="703"
   id="namedview12"
   showgrid="false"
   inkscape:zoom="0.59"
   inkscape:cx="200"
   inkscape:cy="200"
   inkscape:window-x="0"
   inkscape:window-y="0"
   inkscape:window-maximized="1"
   inkscape:current-layer="svg10" />
<desc
   id="desc2">Created with Fabric.js 3.6.2</desc>
<defs
   id="defs4">
</defs>
<g
   transform="matrix(0.76076271,0,0,0.78110985,200,200)"
   id="g8">
<path
   style="opacity:1;fill:#ffffff;fill-rule:nonzero;stroke:none;stroke-width:1;stroke-linecap:butt;stroke-linejoin:round;stroke-miterlimit:2;stroke-dasharray:none;stroke-dashoffset:0"
   transform="translate(-256,-256)"
   d="m 161.014,464.013 c 193.208,0 298.885,-160.071 298.885,-298.885 0,-4.546 0,-9.072 -0.307,-13.578 20.558,-14.871 38.305,-33.282 52.408,-54.374 -19.171,8.495 -39.51,14.065 -60.334,16.527 21.924,-13.124 38.343,-33.782 46.182,-58.102 -20.619,12.235 -43.18,20.859 -66.703,25.498 -19.862,-21.121 -47.602,-33.112 -76.593,-33.112 -57.682,0 -105.145,47.464 -105.145,105.144 0,8.002 0.914,15.979 2.722,23.773 C 167.711,172.673 88.949,132.743 35.635,67.152 7.911,114.878 22.256,176.728 68.157,207.378 51.442,206.883 35.086,202.373 20.48,194.23 v 1.331 c 0.014,49.814 35.447,93.111 84.275,102.974 -15.464,4.217 -31.693,4.833 -47.431,1.802 13.727,42.685 53.311,72.108 98.14,72.95 C 118.274,402.514 72.307,418.39 25.006,418.343 16.648,418.327 8.298,417.821 0,416.827 c 48.034,30.825 103.94,47.18 161.014,47.104"
   id="path6"
   inkscape:connector-curvature="0" />
</g>
</svg>